{
.appVersion = "3151";
.formatVersion = 3;
customParameters = (
{
name = vendorID;
value = ADBO;
},
{
name = panose;
value = (
2,
11,
2,
0,
0,
0,
0,
0,
0,
0
);
},
{
name = unicodeRanges;
value = (
0,
1,
7,
29,
36,
42,
43,
44,
45,
48,
49,
50,
51,
52,
54,
55,
57,
59,
61,
65,
66,
68
);
},
{
name = codePageRanges;
value = (
"1252",
"1250",
"1251",
"1258",
"932",
"936",
"bit 29",
"bit 30"
);
},
{
name = fsType;
value = (
);
}
);
date = "2021-04-29 08:43:11 +0000";
familyName = "Yaku Han JP";
featurePrefixes = (
{
automatic = 1;
code = "languagesystem DFLT dflt;
";
name = Languagesystems;
}
);
features = (
{
automatic = 1;
code = "feature vert;
feature vrt2;
";
tag = aalt;
},
{
code = "sub comma-han by comma-han.vert;
sub period-han by period-han.vert;
sub colon.full by colon.full.vert;
sub blacklenticularbracketleft by blacklenticularbracketleft.vert;
sub blacklenticularbracketright by blacklenticularbracketright.vert;
sub cornerbracketleft by cornerbracketleft.vert;
sub cornerbracketright by cornerbracketright.vert;
sub dblanglebracketleft by dblanglebracketleft.vert;
sub dblanglebracketright by dblanglebracketright.vert;
sub tortoiseshellbracketleft by tortoiseshellbracketleft.vert;
sub tortoiseshellbracketright by tortoiseshellbracketright.vert;
sub whitecornerbracketleft by whitecornerbracketleft.vert;
sub whitecornerbracketright by whitecornerbracketright.vert;
sub whitelenticularbracketleft by whitelenticularbracketleft.vert;
sub whitelenticularbracketright by whitelenticularbracketright.vert;
sub braceleft.full by braceleft.full.vert;
sub braceright.full by braceright.full.vert;
sub bracketleft.full by bracketleft.full.vert;
sub bracketright.full by bracketright.full.vert;
sub parenleft.full by parenleft.full.vert;
sub parenright.full by parenright.full.vert;
sub angleLeft by anglebracketleft.vert;
sub angleRight by anglebracketright.vert;";
tag = vert;
},
{
automatic = 1;
code = "sub comma-han by comma-han.vert;
sub period-han by period-han.vert;

glyphs = (
{
glyphname = .notdef;
lastChange = "2023-08-27 12:30:43 +0000";
layers = (
{
layerId = m01;
shapes = (
{
closed = 1;
nodes = (
(900,880,l),
(100,880,l),
(100,-120,l),
(900,-120,l)
);
},
{
closed = 1;
nodes = (
(818,830,l),
(500,421,l),
(182,830,l)
);
},
{
closed = 1;
nodes = (
(850,-29,l),
(532,380,l),
(850,789,l)
);
},
{
closed = 1;
nodes = (
(818,-70,l),
(182,-70,l),
(500,339,l)
);
},
{
closed = 1;
nodes = (
(150,-29,l),
(150,789,l),
(468,380,l)
);
}
);
vertWidth = 1000;
width = 1000;
}
);
note = ".notdef";
},
{
glyphname = "comma-han";
lastChange = "2023-08-27 13:30:31 +0000";
layers = (
{
layerId = m01;
shapes = (
{
closed = 1;
nodes = (
(344,59,o),
(270,139,o),
(187,218,o),
(152,247,q),
(36,147,l),
(72,118,o),
(147,43,o),
(221,-36,o),
(250,-72,q),
(368,29,l)
);
}
);
vertWidth = 1000;
width = 568;
}
);
note = uni3001;
unicode = 12289;
},
{
glyphname = "comma-han.vert";
lastChange = "2023-08-27 13:31:24 +0000";
layers = (
{
layerId = m01;
shapes = (
{
closed = 1;
nodes = (
(935,658,o),
(861,736,o),
(781,813,o),
(746,841,q),
(632,744,l),
(684,700,o),
(798,582,o),
(842,529,q),
(958,628,l)
);
}
);
vertWidth = 551;
width = 1000;
}
);
note = uniFE11;
unicode = 65041;
},
{
glyphname = "period-han";
lastChange = "2023-08-27 13:30:35 +0000";
layers = (
{
layerId = m01;
shapes = (
{
closed = 1;
nodes = (
(73,205,o),
(29,130,o),
(29,85,qs),
(29,40,o),
(73,-35,o),
(148,-80,o),
(193,-80,qs),
(239,-80,o),
(313,-35,o),
(358,40,o),
(358,85,qs),
(358,130,o),
(313,205,o),
(239,249,o),
(193,249,qs),
(148,249,o)
);
},
{
closed = 1;
nodes = (
(131,21,o),
(107,61,o),
(107,85,qs),
(107,108,o),
(131,148,o),
(170,171,o),
(193,171,qs),
(217,171,o),
(257,148,o),
(280,108,o),
(280,85,qs),
(280,49,o),
(230,-2,o),
(194,-2,qs),
(170,-2,o)
);
}
);
vertWidth = 1000;
width = 758;
}
);
note = uni3002;
unicode = 12290;
},
{
glyphname = "period-han.vert";
lastChange = "2023-08-27 13:31:32 +0000";
layers = (
{
layerId = m01;
shapes = (
{
closed = 1;
nodes = (
(678,784,o),
(634,710,o),
(634,666,qs),
(634,621,o),
(678,549,o),
(751,504,o),
(795,504,qs),
(841,504,o),
(914,549,o),
(957,621,o),
(957,666,qs),
(957,710,o),
(914,784,o),
(841,827,o),
(795,827,qs),
(751,827,o)
);
},
{
closed = 1;
nodes = (
(734,604,o),
(711,643,o),
(711,666,qs),
(711,690,o),
(734,727,o),
(773,750,o),
(796,750,qs),
(819,750,o),
(857,727,o),
(880,690,o),
(880,666,qs),
(880,630,o),
(831,581,o),
(795,581,qs),
(773,581,o)
);
}
);
vertWidth = 776;
width = 1000;
}
);
note = uniFE12;
unicode = 65042;
},
{
glyphname = hyphenationpoint;
lastChange = "2023-08-27 13:30:43 +0000";
layers = (
{
layerId = m01;
shapes = (
{
closed = 1;
nodes = (
(186,478,o),
(150,417,o),
(150,380,qs),
(150,343,o),
(186,282,o),
(248,246,o),
(284,246,qs),
(322,246,o),
(382,282,o),
(418,344,o),
(418,380,qs),
(418,418,o),
(382,478,o),
(321,514,o),
(284,514,qs),
(247,514,o)
);
}
);
vertWidth = 1000;
width = 568;
}
);
note = uni2027;
unicode = (8231,12539);
},
{
glyphname = colon.full;
lastChange = "2023-08-27 13:30:43 +0000";
layers = (
{
layerId = m01;
shapes = (
{
closed = 1;
nodes = (
(352,565,o),
(352,607,qs),
(352,650,o),
(293,707,o),
(251,707,qs),
(209,707,o),
(150,650,o),
(150,607,qs),
(150,565,o),
(209,508,o),
(251,508,qs),
(293,508,o)
);
},
{
closed = 1;
nodes = (
(352,92,o),
(352,133,qs),
(352,176,o),
(293,234,o),
(251,234,qs),
(209,234,o),
(150,176,o),
(150,133,qs),
(150,92,o),
(209,34,o),
(251,34,qs),
(293,34,o)
);
}
);
vertWidth = 1000;
width = 502;
}
);
note = uniFF1A;
unicode = 65306;
},
{
glyphname = exclam.full;
lastChange = "2023-08-27 13:30:43 +0000";
layers = (
{
layerId = m01;
shapes = (
{
closed = 1;
nodes = (
(330,591,l),
(335,748,l),
(155,748,l),
(160,591,l),
(188,262,l),
(302,262,l)
);
},
{
closed = 1;
nodes = (
(340,43,o),
(340,85,qs),
(340,126,o),
(286,179,o),
(245,179,qs),
(204,179,o),
(150,126,o),
(150,85,qs),
(150,43,o),
(203,-11,o),
(245,-11,qs),
(286,-11,o)
);
}
);
vertWidth = 1000;
width = 490;
}
);
note = uniFF01;
unicode = 65281;
},
{
glyphname = question.full;
lastChange = "2023-08-27 13:30:43 +0000";
layers = (
{
layerId = m01;
shapes = (
{
closed = 1;
nodes = (
(464,295,o),
(490,346,o),
(536,386,o),
(589,424,o),
(636,466,o),
(667,520,o),
(667,556,qs),
(667,625,o),
(599,716,o),
(484,760,o),
(411,760,qs),
(331,760,o),
(198,692,o),
(150,636,q),
(240,553,l),
(275,590,o),
(347,629,o),
(392,629,qs),
(428,629,o),
(482,609,o),
(512,571,o),
(512,541,qs),
(512,518,o),
(482,480,o),
(436,445,o),
(385,406,o),
(342,360,o),
(319,300,o),
(324,262,q),
(467,262,l)
);
},
{
closed = 1;
nodes = (
(491,43,o),
(491,85,qs),
(491,126,o),
(436,179,o),
(396,179,qs),
(355,179,o),
(300,126,o),
(300,85,qs),
(300,43,o),
(354,-11,o),
(396,-11,qs),
(436,-11,o)
);
}
);
vertWidth = 1000;
width = 817;
}
);
note = uniFF1F;
unicode = 65311;
},
{
glyphname = semicolon.full;
lastChange = "2023-08-27 13:30:43 +0000";
layers = (
{
layerId = m01;
shapes = (
{
closed = 1;
nodes = (
(391,33,o),
(391,127,qs),
(391,201,o),
(331,285,o),
(275,285,qs),
(233,285,o),
(171,235,o),
(171,190,qs),
(171,145,o),
(233,94,o),
(273,94,qs),
(290,94,o),
(321,106,o),
(334,117,q),
(278,210,l),
(282,99,ls),
(283,53,o),
(216,-25,o),
(150,-49,q),
(186,-137,l),
(285,-106,o)
);
},
{
closed = 1;
nodes = (
(371,565,o),
(371,607,qs),
(371,650,o),
(312,707,o),
(270,707,qs),
(228,707,o),
(169,650,o),
(169,607,qs),
(169,565,o),
(228,508,o),
(270,508,qs),
(312,508,o)
);
}
);
vertWidth = 1000;
width = 541;
}
);
note = uniFF1B;
unicode = 65307;
},
{
glyphname = colon.full.vert;
lastChange = "2023-08-27 13:31:39 +0000";
layers = (
{
layerId = m01;
shapes = (
{
closed = 1;
nodes = (
(364,589,o),
(364,631,qs),
(364,674,o),
(306,730,o),
(263,730,qs),
(221,730,o),
(163,674,o),
(163,631,qs),
(163,589,o),
(221,531,o),
(263,531,qs),
(306,531,o)
);
},
{
closed = 1;
nodes = (
(837,589,o),
(837,631,qs),
(837,674,o),
(779,730,o),
(737,730,qs),
(694,730,o),
(636,674,o),
(636,631,qs),
(636,589,o),
(694,531,o),
(737,531,qs),
(779,531,o)
);
}
);
vertWidth = 499;
width = 1000;
}
);
note = glyph17776;
},
{
glyphname = angleLeft;
lastChange = "2023-08-27 13:30:59 +0000";
layers = (
{
layerId = m01;
shapes = (
{
closed = 1;
nodes = (
(593,807,l),
(484,853,l),
(200,380,l),
(484,-93,l),
(593,-47,l),
(336,380,l)
);
}
);
vertWidth = 1000;
width = 647;
}
);
note = uni2329;
unicode = (9001,12296);
},
{
glyphname = angleRight;
lastChange = "2023-08-27 13:31:13 +0000";
layers = (
{
layerId = m01;
shapes = (
{
closed = 1;
nodes = (
(447,380,l),
(163,853,l),
(54,807,l),
(311,380,l),
(54,-47,l),
(163,-93,l)
);
}
);
vertWidth = 1000;
width = 647;
}
);
note = uni3009;
unicode = (9002,12297);
},
{
glyphname = blacklenticularbracketleft;
lastChange = "2023-08-27 13:30:59 +0000";
layers = (
{
layerId = m01;
shapes = (
{
closed = 1;
nodes = (
(200,853,l),
(200,-93,l),
(514,-93,l),
(514,-88,l),
(460,-41,o),
(370,99,o),
(316,277,o),
(316,380,qs),
(316,484,o),
(370,661,o),
(460,802,o),
(514,848,q),
(514,853,l)
);
}
);
vertWidth = 1000;
width = 541;
}
);
note = uni3010;
unicode = 12304;
},
{
glyphname = blacklenticularbracketright;
lastChange = "2023-08-27 13:31:13 +0000";
layers = (
{
layerId = m01;
shapes = (
{
closed = 1;
nodes = (
(27,853,l),
(27,848,l),
(82,802,o),
(171,661,o),
(225,484,o),
(225,380,qs),
(225,277,o),
(171,99,o),
(82,-41,o),
(27,-88,q),
(27,-93,l),
(341,-93,l),
(341,853,l)
);
}
);
vertWidth = 1000;
width = 541;
}
);
note = uni3011;
unicode = 12305;
},
{
glyphname = braceleft.full;
lastChange = "2023-08-27 13:30:59 +0000";
layers = (
{
layerId = m01;
shapes = (
{
closed = 1;
nodes = (
(493,-12,l),
(464,-12,ls),
(428,-12,o),
(404,20,o),
(404,68,qs),
(404,113,o),
(408,199,o),
(408,249,qs),
(408,312,o),
(368,368,o),
(326,378,q),
(326,382,l),
(368,393,o),
(408,449,o),
(408,511,qs),
(408,562,o),
(404,649,o),
(404,693,qs),
(404,741,o),
(428,773,o),
(464,773,qs),
(493,773,l),
(493,857,l),
(426,857,ls),
(353,857,o),
(284,789,o),
(284,699,qs),
(284,661,o),
(290,601,o),
(295,544,o),
(295,509,qs),
(295,489,o),
(277,452,o),
(237,427,o),
(200,426,q),
(200,335,l),
(237,334,o),
(277,309,o),
(295,272,o),
(295,252,qs),
(295,217,o),
(290,160,o),
(284,100,o),
(284,61,qs),
(284,-28,o),
(353,-96,o),
(426,-96,qs),
(493,-96,l)
);
}
);
vertWidth = 1000;
width = 521;
}
);
note = uniFF5B;
unicode = 65371;
},
{
glyphname = braceright.full;
lastChange = "2023-08-27 13:31:13 +0000";
layers = (
{
layerId = m01;
shapes = (
{
closed = 1;
nodes = (
(28,-12,l),
(57,-12,ls),
(94,-12,o),
(117,20,o),
(117,68,qs),
(117,113,o),
(113,199,o),
(113,249,qs),
(113,312,o),
(153,368,o),
(195,378,q),
(195,382,l),
(153,393,o),
(113,449,o),
(113,511,qs),
(113,562,o),
(117,649,o),
(117,693,qs),
(117,741,o),
(94,773,o),
(57,773,qs),
(28,773,l),
(28,857,l),
(95,857,ls),
(168,857,o),
(237,789,o),
(237,699,qs),
(237,661,o),
(232,601,o),
(226,544,o),
(226,509,qs),
(226,489,o),
(244,452,o),
(285,427,o),
(321,426,q),
(321,335,l),
(285,334,o),
(244,309,o),
(226,272,o),
(226,252,qs),
(226,217,o),
(232,160,o),
(237,100,o),
(237,61,qs),
(237,-28,o),
(168,-96,o),
(95,-96,qs),
(28,-96,l)
);
}
);
vertWidth = 1000;
width = 521;
}
);
note = uniFF5D;
unicode = 65373;
},
{
glyphname = cornerbracketleft;
lastChange = "2023-08-27 13:30:59 +0000";
layers = (
{
layerId = m01;
shapes = (
{
closed = 1;
nodes = (
(330,216,l),
(330,734,l),
(535,734,l),
(535,853,l),
(200,853,l),
(200,216,l)
);
}
);
vertWidth = 1000;
width = 562;
}
);
note = uni300C;
unicode = 12300;
},
{
glyphname = cornerbracketright;
lastChange = "2023-08-27 13:31:13 +0000";
layers = (
{
layerId = m01;
shapes = (
{
closed = 1;
nodes = (
(232,544,l),
(232,26,l),
(27,26,l),
(27,-93,l),
(362,-93,l),
(362,544,l)
);
}
);
vertWidth = 1000;
width = 562;
}
);
note = uni300D;
unicode = 12301;
},
{
glyphname = dblanglebracketleft;
lastChange = "2023-08-27 13:30:59 +0000";
layers = (
{
layerId = m01;
shapes = (
{
closed = 1;
nodes = (
(484,826,l),
(392,853,l),
(200,380,l),
(392,-93,l),
(484,-66,l),
(301,380,l)
);
},
{
closed = 1;
nodes = (
(660,826,l),
(569,853,l),
(377,380,l),
(569,-93,l),
(660,-66,l),
(478,380,l)
);
}
);
vertWidth = 1000;
width = 685;
}
);
note = uni300A;
unicode = 12298;
},
{
glyphname = dblanglebracketright;
lastChange = "2023-08-27 13:31:13 +0000";
layers = (
{
layerId = m01;
shapes = (
{
closed = 1;
nodes = (
(485,380,l),
(293,853,l),
(201,826,l),
(384,380,l),
(201,-66,l),
(293,-93,l)
);
},
{
closed = 1;
nodes = (
(308,380,l),
(116,853,l),
(25,826,l),
(207,380,l),
(25,-66,l),
(116,-93,l)
);
}
);
vertWidth = 1000;
width = 685;
}
);
note = uni300B;
unicode = 12299;
},
{
glyphname = tortoiseshellbracketleft;
lastChange = "2023-08-27 13:30:59 +0000";
layers = (
{
layerId = m01;
shapes = (
{
closed = 1;
nodes = (
(491,-20,l),
(321,89,l),
(321,671,l),
(491,780,l),
(439,866,l),
(200,713,l),
(200,47,l),
(439,-106,l)
);
}
);
vertWidth = 1000;
width = 513;
}
);
note = uni3014;
unicode = 12308;
},
{
glyphname = tortoiseshellbracketright;
lastChange = "2023-08-27 13:31:13 +0000";
layers = (
{
layerId = m01;
shapes = (
{
closed = 1;
nodes = (
(22,-20,l),
(192,89,l),
(192,671,l),
(22,780,l),
(74,866,l),
(313,713,l),
(313,47,l),
(74,-106,l)
);
}
);
vertWidth = 1000;
width = 513;
}
);
note = uni3015;
unicode = 12309;
},
{
glyphname = whitecornerbracketleft;
lastChange = "2023-08-27 13:30:59 +0000";
layers = (
{
layerId = m01;
shapes = (
{
closed = 1;
nodes = (
(573,853,l),
(200,853,l),
(200,193,l),
(399,193,l),
(399,670,l),
(573,670,l)
);
},
{
closed = 1;
nodes = (
(526,716,l),
(352,716,l),
(352,240,l),
(247,240,l),
(247,806,l),
(526,806,l)
);
}
);
vertWidth = 1000;
width = 600;
}
);
note = uni300E;
unicode = 12302;
},
{
glyphname = whitecornerbracketright;
lastChange = "2023-08-27 13:31:13 +0000";
layers = (
{
layerId = m01;
shapes = (
{
closed = 1;
nodes = (
(27,-93,l),
(400,-93,l),
(400,567,l),
(201,567,l),
(201,90,l),
(27,90,l)
);
},
{
closed = 1;
nodes = (
(74,44,l),
(248,44,l),
(248,520,l),
(353,520,l),
(353,-46,l),
(74,-46,l)
);
}
);
vertWidth = 1000;
width = 600;
}
);
note = uni300F;
unicode = 12303;
},
{
glyphname = whitelenticularbracketleft;
lastChange = "2023-08-27 13:30:59 +0000";
layers = (
{
layerId = m01;
shapes = (
{
closed = 1;
nodes = (
(464,-39,o),
(346,89,o),
(280,267,o),
(280,380,qs),
(280,493,o),
(346,671,o),
(464,800,o),
(543,836,q),
(543,853,l),
(200,853,l),
(200,-93,l),
(543,-93,l),
(543,-76,l)
);
},
{
closed = 1;
nodes = (
(226,828,l),
(476,828,l),
(441,806,o),
(364,732,o),
(297,624,o),
(255,477,o),
(255,380,qs),
(255,283,o),
(297,136,o),
(364,28,o),
(441,-46,o),
(476,-68,q),
(226,-68,l)
);
}
);
vertWidth = 1000;
width = 570;
}
);
note = uni3016;
unicode = 12310;
},
{
glyphname = whitelenticularbracketright;
lastChange = "2023-08-27 13:31:13 +0000";
layers = (
{
layerId = m01;
shapes = (
{
closed = 1;
nodes = (
(370,-93,l),
(370,853,l),
(27,853,l),
(27,836,l),
(106,800,o),
(224,671,o),
(290,493,o),
(290,380,qs),
(290,268,o),
(224,89,o),
(106,-39,o),
(27,-76,q),
(27,-93,l)
);
},
{
closed = 1;
nodes = (
(129,-46,o),
(206,28,o),
(273,136,o),
(315,283,o),
(315,380,qs),
(315,477,o),
(273,624,o),
(206,732,o),
(129,806,o),
(94,828,q),
(344,828,l),
(344,-68,l),
(94,-68,l)
);
}
);
vertWidth = 1000;
width = 570;
}
);
note = uni3017;
unicode = 12311;
},
{
glyphname = anglebracketleft.vert;
lastChange = "2023-08-27 13:31:51 +0000";
layers = (
{
layerId = m01;
shapes = (
{
closed = 1;
nodes = (
(927,287,l),
(973,396,l),
(500,680,l),
(27,396,l),
(73,287,l),
(500,544,l)
);
}
);
vertWidth = 647;
width = 1000;
}
);
note = uniFE3F;
unicode = 65087;
},
{
glyphname = anglebracketright.vert;
lastChange = "2023-08-27 13:32:49 +0000";
layers = (
{
layerId = m01;
shapes = (
{
closed = 1;
nodes = (
(73,826,l),
(27,717,l),
(500,433,l),
(973,717,l),
(927,826,l),
(500,569,l)
);
}
);
vertWidth = 647;
width = 1000;
}
);
note = uniFE40;
unicode = 65088;
},
{
glyphname = blacklenticularbracketleft.vert;
lastChange = "2023-08-27 13:31:57 +0000";
layers = (
{
layerId = m01;
shapes = (
{
closed = 1;
nodes = (
(973,680,l),
(27,680,l),
(27,366,l),
(32,366,l),
(79,421,o),
(219,510,o),
(397,564,o),
(500,564,qs),
(604,564,o),
(781,510,o),
(922,421,o),
(968,366,q),
(973,366,l)
);
}
);
vertWidth = 541;
width = 1000;
}
);
note = uniFE3B;
unicode = 65083;
},
{
glyphname = blacklenticularbracketright.vert;
lastChange = "2023-08-27 13:32:55 +0000";
layers = (
{
layerId = m01;
shapes = (
{
closed = 1;
nodes = (
(973,853,l),
(968,853,l),
(922,799,o),
(781,709,o),
(604,655,o),
(500,655,qs),
(397,655,o),
(219,709,o),
(79,799,o),
(32,853,q),
(27,853,l),
(27,539,l),
(973,539,l)
);
}
);
vertWidth = 541;
width = 1000;
}
);
note = uniFE3C;
unicode = 65084;
},
{
glyphname = bracketleft.full;
lastChange = "2023-08-27 13:30:59 +0000";
layers = (
{
layerId = m01;
shapes = (
{
closed = 1;
nodes = (
(459,-93,l),
(459,-7,l),
(320,-7,l),
(320,767,l),
(459,767,l),
(459,853,l),
(200,853,l),
(200,-93,l)
);
}
);
vertWidth = 1000;
width = 486;
}
);
note = uniFF3B;
unicode = 65339;
},
{
glyphname = bracketright.full;
lastChange = "2023-08-27 13:31:13 +0000";
layers = (
{
layerId = m01;
shapes = (
{
closed = 1;
nodes = (
(27,-93,l),
(27,-7,l),
(166,-7,l),
(166,767,l),
(27,767,l),
(27,853,l),
(286,853,l),
(286,-93,l)
);
}
);
vertWidth = 1000;
width = 486;
}
);
note = uniFF3D;
unicode = 65341;
},
{
glyphname = cornerbracketleft.vert;
lastChange = "2023-08-27 13:32:02 +0000";
layers = (
{
layerId = m01;
shapes = (
{
closed = 1;
nodes = (
(286,556,l),
(844,556,l),
(844,345,l),
(975,345,l),
(975,680,l),
(286,680,l)
);
}
);
vertWidth = 562;
width = 1000;
}
);
note = uniFE41;
unicode = 65089;
},
{
glyphname = cornerbracketright.vert;
lastChange = "2023-08-27 13:33:02 +0000";
layers = (
{
layerId = m01;
shapes = (
{
closed = 1;
nodes = (
(714,624,l),
(156,624,l),
(156,836,l),
(25,836,l),
(25,500,l),
(714,500,l)
);
}
);
vertWidth = 580;
width = 1000;
}
);
note = uniFE42;
unicode = 65090;
},
{
glyphname = dblanglebracketleft.vert;
lastChange = "2023-08-27 13:32:08 +0000";
layers = (
{
layerId = m01;
shapes = (
{
closed = 1;
nodes = (
(946,396,l),
(973,488,l),
(500,680,l),
(27,488,l),
(54,396,l),
(500,579,l)
);
},
{
closed = 1;
nodes = (
(946,220,l),
(973,311,l),
(500,503,l),
(27,311,l),
(54,220,l),
(500,402,l)
);
}
);
vertWidth = 685;
width = 1000;
}
);
note = uniFE3D;
unicode = 65085;
},
{
glyphname = dblanglebracketright.vert;
lastChange = "2023-08-27 13:33:08 +0000";
layers = (
{
layerId = m01;
shapes = (
{
closed = 1;
nodes = (
(54,679,l),
(27,587,l),
(500,395,l),
(973,587,l),
(946,679,l),
(500,496,l)
);
},
{
closed = 1;
nodes = (
(54,855,l),
(27,764,l),
(500,572,l),
(973,764,l),
(946,855,l),
(500,673,l)
);
}
);
vertWidth = 685;
width = 1000;
}
);
note = uniFE3E;
unicode = 65086;
},
{
glyphname = parenleft.full;
lastChange = "2023-08-27 13:30:59 +0000";
layers = (
{
layerId = m01;
shapes = (
{
closed = 1;
nodes = (
(255,91,o),
(345,-50,o),
(397,-102,q),
(502,-56,l),
(454,-3,o),
(373,124,o),
(325,283,o),
(325,380,qs),
(325,478,o),
(373,636,o),
(454,764,o),
(502,816,q),
(397,862,l),
(345,811,o),
(255,669,o),
(200,489,o),
(200,380,qs),
(200,271,o)
);
}
);
vertWidth = 1000;
width = 546;
}
);
note = uniFF08;
unicode = 65288;
},
{
glyphname = parenright.full;
lastChange = "2023-08-27 13:31:13 +0000";
layers = (
{
layerId = m01;
shapes = (
{
closed = 1;
nodes = (
(291,669,o),
(202,811,o),
(149,862,q),
(44,816,l),
(92,764,o),
(173,636,o),
(221,478,o),
(221,380,qs),
(221,283,o),
(173,124,o),
(92,-3,o),
(44,-56,q),
(149,-102,l),
(202,-50,o),
(291,91,o),
(346,271,o),
(346,380,qs),
(346,489,o)
);
}
);
vertWidth = 1000;
width = 546;
}
);
note = uniFF09;
unicode = 65289;
},
{
glyphname = tortoiseshellbracketleft.vert;
lastChange = "2023-08-27 13:32:14 +0000";
layers = (
{
layerId = m01;
shapes = (
{
closed = 1;
nodes = (
(100,389,l),
(209,559,l),
(791,559,l),
(900,389,l),
(986,441,l),
(833,680,l),
(167,680,l),
(14,441,l)
);
}
);
vertWidth = 513;
width = 1000;
}
);
note = uniFE39;
unicode = 65081;
},
{
glyphname = tortoiseshellbracketright.vert;
lastChange = "2023-08-27 13:33:14 +0000";
layers = (
{
layerId = m01;
shapes = (
{
closed = 1;
nodes = (
(100,858,l),
(209,688,l),
(791,688,l),
(900,858,l),
(986,806,l),
(833,567,l),
(167,567,l),
(14,806,l)
);
}
);
vertWidth = 513;
width = 1000;
}
);
note = uniFE3A;
unicode = 65082;
},
{
glyphname = whitecornerbracketleft.vert;
lastChange = "2023-08-27 13:32:20 +0000";
layers = (
{
layerId = m01;
shapes = (
{
closed = 1;
nodes = (
(973,322,l),
(973,680,l),
(313,680,l),
(313,496,l),
(780,496,l),
(780,322,l)
);
},
{
closed = 1;
nodes = (
(826,369,l),
(826,543,l),
(360,543,l),
(360,633,l),
(926,633,l),
(926,369,l)
);
}
);
vertWidth = 585;
width = 1000;
}
);
note = uniFE43;
unicode = 65091;
},
{
glyphname = whitecornerbracketright.vert;
lastChange = "2023-08-27 13:33:20 +0000";
layers = (
{
layerId = m01;
shapes = (
{
closed = 1;
nodes = (
(27,853,l),
(27,495,l),
(687,495,l),
(687,679,l),
(220,679,l),
(220,853,l)
);
},
{
closed = 1;
nodes = (
(174,806,l),
(174,632,l),
(640,632,l),
(640,542,l),
(74,542,l),
(74,806,l)
);
}
);
vertWidth = 585;
width = 1000;
}
);
note = uniFE44;
unicode = 65092;
},
{
glyphname = whitelenticularbracketleft.vert;
lastChange = "2023-08-27 13:32:26 +0000";
layers = (
{
layerId = m01;
shapes = (
{
closed = 1;
nodes = (
(81,416,o),
(209,534,o),
(387,600,o),
(500,600,qs),
(613,600,o),
(791,534,o),
(920,416,o),
(956,337,q),
(973,337,l),
(973,680,l),
(27,680,l),
(27,337,l),
(44,337,l)
);
},
{
closed = 1;
nodes = (
(948,654,l),
(948,404,l),
(926,439,o),
(852,516,o),
(744,583,o),
(597,625,o),
(500,625,qs),
(403,625,o),
(256,583,o),
(148,516,o),
(74,439,o),
(52,404,q),
(52,654,l)
);
}
);
vertWidth = 570;
width = 1000;
}
);
note = uniFE17;
unicode = 65047;
},
{
glyphname = whitelenticularbracketright.vert;
lastChange = "2023-08-27 13:33:26 +0000";
layers = (
{
layerId = m01;
shapes = (
{
closed = 1;
nodes = (
(27,510,l),
(973,510,l),
(973,853,l),
(956,853,l),
(920,774,o),
(791,656,o),
(613,590,o),
(500,590,qs),
(388,590,o),
(209,656,o),
(81,774,o),
(44,853,q),
(27,853,l)
);
},
{
closed = 1;
nodes = (
(74,751,o),
(148,674,o),
(256,607,o),
(403,565,o),
(500,565,qs),
(597,565,o),
(744,607,o),
(852,674,o),
(926,751,o),
(948,786,q),
(948,536,l),
(52,536,l),
(52,786,l)
);
}
);
vertWidth = 570;
width = 1000;
}
);
note = uniFE18;
unicode = 65048;
},
{
glyphname = braceleft.full.vert;
lastChange = "2023-08-27 13:32:32 +0000";
layers = (
{
layerId = m01;
shapes = (
{
closed = 1;
nodes = (
(108,387,l),
(108,416,ls),
(108,453,o),
(140,476,o),
(188,476,qs),
(233,476,o),
(319,472,o),
(369,472,qs),
(432,472,o),
(488,512,o),
(498,554,q),
(502,554,l),
(513,512,o),
(569,472,o),
(631,472,qs),
(682,472,o),
(769,476,o),
(813,476,qs),
(861,476,o),
(893,453,o),
(893,416,qs),
(893,387,l),
(977,387,l),
(977,454,ls),
(977,527,o),
(909,596,o),
(819,596,qs),
(781,596,o),
(721,591,o),
(664,585,o),
(629,585,qs),
(609,585,o),
(572,603,o),
(547,644,o),
(546,680,q),
(455,680,l),
(454,644,o),
(429,603,o),
(392,585,o),
(372,585,qs),
(337,585,o),
(280,591,o),
(220,596,o),
(181,596,qs),
(92,596,o),
(24,527,o),
(24,454,qs),
(24,387,l)
);
}
);
vertWidth = 521;
width = 1000;
}
);
note = uniFE37;
unicode = 65079;
},
{
glyphname = braceright.full.vert;
lastChange = "2023-08-27 13:33:32 +0000";
layers = (
{
layerId = m01;
shapes = (
{
closed = 1;
nodes = (
(892,852,l),
(892,823,ls),
(892,787,o),
(860,763,o),
(812,763,qs),
(767,763,o),
(681,767,o),
(631,767,qs),
(569,767,o),
(512,727,o),
(502,685,q),
(498,685,l),
(488,727,o),
(431,767,o),
(369,767,qs),
(318,767,o),
(232,763,o),
(187,763,qs),
(139,763,o),
(107,787,o),
(107,823,qs),
(107,852,l),
(23,852,l),
(23,785,ls),
(23,712,o),
(91,643,o),
(181,643,qs),
(220,643,o),
(279,649,o),
(336,654,o),
(371,654,qs),
(392,654,o),
(428,636,o),
(453,596,o),
(454,559,q),
(545,559,l),
(546,596,o),
(571,636,o),
(608,654,o),
(628,654,qs),
(663,654,o),
(720,649,o),
(780,643,o),
(819,643,qs),
(908,643,o),
(976,712,o),
(976,785,qs),
(976,852,l)
);
}
);
vertWidth = 521;
width = 1000;
}
);
note = uniFE38;
unicode = 65080;
},
{
glyphname = bracketleft.full.vert;
lastChange = "2023-08-27 13:32:38 +0000";
layers = (
{
layerId = m01;
shapes = (
{
closed = 1;
nodes = (
(27,421,l),
(113,421,l),
(113,560,l),
(887,560,l),
(887,421,l),
(973,421,l),
(973,680,l),
(27,680,l)
);
}
);
vertWidth = 486;
width = 1000;
}
);
note = uniFE47;
unicode = 65095;
},
{
glyphname = bracketright.full.vert;
lastChange = "2023-08-27 13:33:38 +0000";
layers = (
{
layerId = m01;
shapes = (
{
closed = 1;
nodes = (
(27,853,l),
(113,853,l),
(113,714,l),
(887,714,l),
(887,853,l),
(973,853,l),
(973,594,l),
(27,594,l)
);
}
);
vertWidth = 486;
width = 1000;
}
);
note = uniFE48;
unicode = 65096;
},
{
glyphname = parenleft.full.vert;
lastChange = "2023-08-27 13:32:44 +0000";
layers = (
{
layerId = m01;
shapes = (
{
closed = 1;
nodes = (
(211,625,o),
(70,536,o),
(18,483,q),
(64,378,l),
(117,426,o),
(244,507,o),
(403,555,o),
(500,555,qs),
(598,555,o),
(756,507,o),
(884,426,o),
(936,378,q),
(982,483,l),
(931,536,o),
(789,625,o),
(609,680,o),
(500,680,qs),
(391,680,o)
);
}
);
vertWidth = 546;
width = 1000;
}
);
note = uniFE35;
unicode = 65077;
},
{
glyphname = parenright.full.vert;
lastChange = "2023-08-27 13:33:44 +0000";
layers = (
{
layerId = m01;
shapes = (
{
closed = 1;
nodes = (
(789,589,o),
(931,679,o),
(982,731,q),
(936,836,l),
(884,788,o),
(756,707,o),
(598,659,o),
(500,659,qs),
(403,659,o),
(244,707,o),
(117,788,o),
(64,836,q),
(18,731,l),
(70,679,o),
(211,589,o),
(391,534,o),
(500,534,qs),
(609,534,o)
);
}
